<?xml version="1.0" encoding="utf-8"?>
<!-- Generator: Adobe Illustrator 16.0.3, SVG Export Plug-In . SVG Version: 6.00 Build 0)  -->
<!DOCTYPE svg PUBLIC "-//W3C//DTD SVG 1.1//EN" "http://www.w3.org/Graphics/SVG/1.1/DTD/svg11.dtd">
<svg version="1.1" id="Tools" xmlns="http://www.w3.org/2000/svg" xmlns:xlink="http://www.w3.org/1999/xlink" x="0px" y="0px"
	 width="1600px" height="800px" viewBox="0 0 1600 800" enable-background="new 0 0 1600 800" xml:space="preserve">
<path fill="#FFFFFF" d="M525.4,275.6c37.319-29,68.279-9,109.6,38.84c4.64,5.399,10.88-0.921,14.439-4
	c3.521-3.12,58.041-52.2,60.721-54.44c2.64-2.36,5.84-6.76,1.64-11.68c-4.28-4.92-19.76-25-29.72-38.04
	c-72.32-94.6,197.84-158.76,156.359-159.76c-21.119-0.56-105.84-1.56-118.52-0.16c-51.32,5.4-115.76,53.36-148.2,75.72
	c-42.439,29.04-58.279,46.08-60.88,48.44c-12,10.48-1.92,34.68-23.68,53.76c-23,20.12-37.36,4.88-50.68,16.56
	c-6.601,5.84-25.08,19.68-30.36,24.28c-5.32,4.68-6.28,12.56-0.84,18.84c0,0,50.56,55.84,54.8,60.8c4.2,4.88,15.64,9.12,22.68,2.84
	c7.08-6.239,25.28-22.119,28.32-24.92C514.2,320.04,509.08,288.24,525.4,275.6z M753.72,296.28c-4.8-5.56-10.76-5.72-15.88-1.16
	L680.48,345.2c-4.521,4-5.16,11.319-1.08,16l331.76,377.56c7.76,8.92,21.2,9.84,30.04,2.12l38.8-32.52
	c8.88-7.801,9.8-21.32,2.08-30.32L753.72,296.28z M1196.08,135.6c-2.96-19.76-13.2-15.64-18.52-7.28
	c-5.32,8.44-28.841,44.08-38.521,60.24c-9.6,16-33.28,47.64-77.36,16.4c-45.92-32.44-29.96-55.08-21.96-70.32
	c8.04-15.32,32.721-58.28,36.28-63.6c3.561-5.4-0.6-21.08-14.84-14.52c-14.28,6.56-100.92,41-112.92,90.4
	c-12.28,50.24,10.279,95.16-34,139.76l-53.721,56l53.961,62.641l66.159-62.801c15.761-15.84,49.44-31.239,79.921-24.279
	C1125.88,333,1161.52,308.48,1183,267.92C1202.28,231.68,1199.08,155.36,1196.08,135.6z M509.56,682.12
	c-8.319,8.36-8.319,21.96,0,30.319l38.04,37.2c8.32,8.36,21.521,4.841,29.841-3.52L773.72,553.16L713.6,484.6L509.56,682.12z"/>
</svg>
