<?xml version="1.0" encoding="utf-8"?>
<!-- Generator: Adobe Illustrator 16.0.3, SVG Export Plug-In . SVG Version: 6.00 Build 0)  -->
<!DOCTYPE svg PUBLIC "-//W3C//DTD SVG 1.1//EN" "http://www.w3.org/Graphics/SVG/1.1/DTD/svg11.dtd">
<svg version="1.1" id="Tree" xmlns="http://www.w3.org/2000/svg" xmlns:xlink="http://www.w3.org/1999/xlink" x="0px" y="0px"
	 width="1600px" height="800px" viewBox="0 0 1600 800" enable-background="new 0 0 1600 800" xml:space="preserve">
<path fill="#FFFFFF" d="M1200,400c0-54.44-30.32-104.64-81.24-144.88c-0.08-0.04-0.16-0.04-0.199-0.12
	C1104.08,112.12,967.08,0,800,0S495.92,112.12,481.44,255c-0.04,0.08-0.12,0.08-0.2,0.12C430.32,295.36,400,345.56,400,400
	c0,124.48,157.88,226.76,360,238.8c0,13.521,0,27.32,0,41.2c0,40-72.84,76.439-72.84,76.439c-3.96,1.961-5.92,6.921-4.36,11.08
	c0,0,12.2,32.48,37.2,32.48s44.96-20,94.96-20s97.56,17.28,97.56,17.28c4.08,1.52,10.041,0.199,13.16-2.92l28.681-28.681
	c3.12-3.12,2.319-6.92-1.841-8.479c0,0-72.479-27.2-72.479-77.2c0-12.48,0-28.24,0-44.84C1062.6,612.96,1200,516.12,1200,400z
	 M480,400c0-40.76,30.72-77.8,80.88-106.04c-0.399-4.64-0.88-9.28-0.88-13.96c0-110.48,107.48-200,240-200s240,89.52,240,200
	c0,4.68-0.48,9.32-0.84,13.96C1089.28,322.2,1120,359.24,1120,400c0,74.56-102.04,136.96-239.96,154.76c0-16.04,0-26.72,0-26.72
	c0-4.4,2.6-10.48,5.8-13.48l73.32-69.04c3.2-3.039,5.84-9.079,5.84-13.479V398c0-4.4-3.12-6.2-6.88-3.96l-71.16,41.88
	c-3.84,2.24-6.92,0.48-6.92-3.96V288c0-4.4-3.4-6.88-7.601-5.48L767.6,317.48c-4.16,1.399-7.56,6.119-7.56,10.52v104
	c0,4.4-3.16,6.32-7.08,4.28l-80.88-42.561c-3.88-2.04-9.6-1.2-12.72,1.92L645.68,409.32c-3.119,3.12-2.92,8.04,0.36,10.92
	l108,94.439c3.32,2.92,6,8.881,6,13.28c0,0,0,11.92,0,30.601C602.24,548.76,480,481.6,480,400z"/>
</svg>
